<?xml version="1.0" encoding="UTF-8" standalone="no"?>
<svg
   viewBox="0 0 1200 580"
   height="580"
   width="1200"
   xml:space="preserve"
   id="svg2"
   version="1.1"
   sodipodi:docname="logonew1.svg"
   inkscape:version="1.1.2 (b8e25be833, 2022-02-05)"
   xmlns:inkscape="http://www.inkscape.org/namespaces/inkscape"
   xmlns:sodipodi="http://sodipodi.sourceforge.net/DTD/sodipodi-0.dtd"
   xmlns="http://www.w3.org/2000/svg"
   xmlns:svg="http://www.w3.org/2000/svg"
   xmlns:rdf="http://www.w3.org/1999/02/22-rdf-syntax-ns#"
   xmlns:cc="http://creativecommons.org/ns#"
   xmlns:dc="http://purl.org/dc/elements/1.1/"><sodipodi:namedview
     id="namedview170"
     pagecolor="#ffffff"
     bordercolor="#666666"
     borderopacity="1.0"
     inkscape:pageshadow="2"
     inkscape:pageopacity="0.0"
     inkscape:pagecheckerboard="0"
     showgrid="false"
     height="840px"
     inkscape:zoom="0.57708333"
     inkscape:cx="703.53791"
     inkscape:cy="304.11553"
     inkscape:window-width="1920"
     inkscape:window-height="1018"
     inkscape:window-x="-8"
     inkscape:window-y="-8"
     inkscape:window-maximized="1"
     inkscape:current-layer="g12" /><metadata
     id="metadata8"><rdf:RDF><cc:Work
         rdf:about=""><dc:format>image/svg+xml</dc:format><dc:type
           rdf:resource="http://purl.org/dc/dcmitype/StillImage" /></cc:Work></rdf:RDF></metadata><defs
     id="defs6"><clipPath
       id="clipPath18"
       clipPathUnits="userSpaceOnUse"><path
         id="path16"
         d="M 0,0 H 1080 V 1080 H 0 Z" /></clipPath><clipPath
       id="clipPath58"
       clipPathUnits="userSpaceOnUse"><path
         id="path56"
         d="M 500.72,697.84 H 971.17 V 371.28 H 500.72 Z" /></clipPath></defs><g
     transform="matrix(1.3333333,0,0,-1.3333333,-116.10108,1011.9856)"
     id="g10"><g
       id="g12"><g
         transform="translate(243.2295,390.9326)"
         id="g20"><path
           id="path22"
           style="fill:#00937c;fill-opacity:1;fill-rule:nonzero;stroke:none"
           d="m 0,0 -97.021,56.015 c -8.57,4.948 -13.895,14.169 -13.895,24.066 v 137.451 c 0,9.897 5.325,19.118 13.895,24.066 l 119.036,68.726 c 8.571,4.947 19.219,4.949 27.789,-0.001 l 119.037,-68.725 c 8.57,-4.948 13.894,-14.169 13.894,-24.066 V 80.081 c 0,-9.897 -5.324,-19.118 -13.895,-24.066 L 72.453,0.366 v 57.583 l 53.525,30.904 c 4.353,2.513 7.057,7.196 7.057,12.223 v 96.252 c 0,3.325 2.696,6.02 6.021,6.02 3.325,0 6.02,-2.695 6.02,-6.02 v -96.252 c 0,-9.315 -5.011,-17.994 -13.078,-22.651 L 84.494,50.998 V 21.221 l 78.326,45.222 c 4.857,2.804 7.874,8.03 7.874,13.638 v 137.451 c 0,5.608 -3.017,10.834 -7.873,13.638 L 43.783,299.896 c -4.857,2.806 -10.891,2.804 -15.747,0 L -91.001,231.17 c -4.857,-2.804 -7.874,-8.03 -7.874,-13.638 V 80.081 c 0,-5.608 3.017,-10.834 7.874,-13.638 l 78.96,-45.589 v 29.778 l -48.138,27.793 c -8.066,4.657 -13.078,13.336 -13.078,22.651 v 96.252 c 0,3.325 2.696,6.02 6.021,6.02 3.325,0 6.02,-2.695 6.02,-6.02 v -96.252 c 0,-5.027 2.704,-9.71 7.057,-12.223 L 0,57.583 Z" /></g><g
         transform="translate(287.3066,337.7666)"
         id="g24"><path
           id="path26"
           style="fill:#00937c;fill-opacity:1;fill-rule:nonzero;stroke:none"
           d="m 0,0 v 133.385 l 51.694,29.845 c 2.338,1.35 3.79,3.866 3.79,6.566 v 115.07 c 0,3.324 2.696,6.021 6.021,6.021 3.325,0 6.02,-2.697 6.02,-6.021 v -115.07 c 0,-6.989 -3.759,-13.5 -9.811,-16.993 L 12.041,126.434 V 20.854 l 138.925,80.209 c 4.857,2.805 7.874,8.03 7.874,13.637 v 174.661 c 0,5.608 -3.017,10.834 -7.874,13.638 l -151.26,87.33 c -4.856,2.805 -10.89,2.805 -15.747,0 l -151.26,-87.33 c -4.856,-2.804 -7.873,-8.03 -7.873,-13.638 V 114.7 c 0,-5.607 3.017,-10.832 7.873,-13.637 L -28.375,20.854 v 105.58 l -45.674,26.369 c -6.052,3.493 -9.811,10.004 -9.811,16.993 v 115.07 c 0,3.324 2.695,6.021 6.02,6.021 3.326,0 6.021,-2.697 6.021,-6.021 v -115.07 c 0,-2.7 1.452,-5.215 3.789,-6.566 l 51.695,-29.845 V 0 l -156.986,90.636 c -8.57,4.948 -13.894,14.17 -13.894,24.064 v 174.661 c 0,9.896 5.324,19.117 13.894,24.066 l 151.258,87.33 c 8.572,4.947 19.22,4.948 27.79,0 l 151.26,-87.33 c 8.57,-4.949 13.894,-14.17 13.894,-24.066 V 114.7 c 0,-9.894 -5.324,-19.116 -13.894,-24.064 z" /></g><g
         transform="translate(279.1392,493.2148)"
         id="g28"><path
           id="path30"
           style="fill:#00937c;fill-opacity:1;fill-rule:nonzero;stroke:none"
           d="m 0,0 c -2.263,0 -4.525,0.583 -6.544,1.747 l -29.131,16.82 c -4.036,2.329 -6.544,6.672 -6.544,11.333 v 104.835 c 0,3.326 2.695,6.021 6.02,6.021 3.325,0 6.021,-2.695 6.021,-6.021 V 29.9 c 0,-0.372 0.2,-0.718 0.522,-0.904 l 29.133,-16.82 c 0.322,-0.187 0.723,-0.188 1.045,0 l 29.133,16.819 c 0.323,0.187 0.523,0.532 0.523,0.905 v 104.835 c 0,3.326 2.695,6.021 6.02,6.021 3.325,0 6.021,-2.695 6.021,-6.021 V 29.9 c 0,-4.661 -2.508,-9.004 -6.545,-11.334 L 6.543,1.747 C 4.525,0.583 2.263,0 0,0" /></g><g
         transform="translate(175.9761,609.4346)"
         id="g32"><path
           id="path34"
           style="fill:#00937c;fill-opacity:1;fill-rule:nonzero;stroke:none"
           d="m 0,0 c -4.178,0 -7.577,-3.399 -7.577,-7.577 0,-4.177 3.399,-7.576 7.577,-7.576 4.178,0 7.577,3.399 7.577,7.576 C 7.577,-3.399 4.178,0 0,0 m 0,-27.194 c -10.817,0 -19.618,8.8 -19.618,19.617 0,10.817 8.801,19.618 19.618,19.618 10.817,0 19.617,-8.801 19.617,-19.618 0,-10.817 -8.8,-19.617 -19.617,-19.617" /></g><g
         transform="translate(382.3311,609.4346)"
         id="g36"><path
           id="path38"
           style="fill:#00937c;fill-opacity:1;fill-rule:nonzero;stroke:none"
           d="m 0,0 c -4.178,0 -7.577,-3.399 -7.577,-7.577 0,-4.177 3.399,-7.576 7.577,-7.576 4.178,0 7.577,3.399 7.577,7.576 C 7.577,-3.399 4.178,0 0,0 m 0,-27.194 c -10.817,0 -19.618,8.8 -19.618,19.617 0,10.817 8.801,19.618 19.618,19.618 10.817,0 19.618,-8.801 19.618,-19.618 0,-10.817 -8.801,-19.617 -19.618,-19.617" /></g><g
         transform="translate(242.9404,649.1255)"
         id="g40"><path
           id="path42"
           style="fill:#00937c;fill-opacity:1;fill-rule:nonzero;stroke:none"
           d="m 0,0 c -4.178,0 -7.577,-3.399 -7.577,-7.577 0,-4.178 3.399,-7.577 7.577,-7.577 4.178,0 7.577,3.399 7.577,7.577 C 7.577,-3.399 4.178,0 0,0 m 0,-27.195 c -10.817,0 -19.617,8.8 -19.617,19.618 0,10.817 8.8,19.618 19.617,19.618 10.817,0 19.618,-8.801 19.618,-19.618 0,-10.818 -8.801,-19.618 -19.618,-19.618" /></g><g
         transform="translate(315.3374,649.1255)"
         id="g44"><path
           id="path46"
           style="fill:#00937c;fill-opacity:1;fill-rule:nonzero;stroke:none"
           d="m 0,0 c -4.178,0 -7.577,-3.399 -7.577,-7.577 0,-4.178 3.399,-7.577 7.577,-7.577 4.178,0 7.577,3.399 7.577,7.577 C 7.577,-3.399 4.178,0 0,0 m 0,-27.195 c -10.817,0 -19.617,8.8 -19.617,19.618 0,10.817 8.8,19.618 19.617,19.618 10.817,0 19.618,-8.801 19.618,-19.618 0,-10.818 -8.801,-19.618 -19.618,-19.618" /></g><g
         transform="translate(279.1392,532.7871)"
         id="g48"><path
           id="path50"
           style="fill:#00937c;fill-opacity:1;fill-rule:nonzero;stroke:none"
           d="m 0,0 c -3.325,0 -6.02,2.695 -6.02,6.02 v 79.353 c 0,3.325 2.695,6.02 6.02,6.02 3.325,0 6.02,-2.695 6.02,-6.02 V 6.02 C 6.02,2.695 3.325,0 0,0" /></g><g
         id="g54" /><g
         id="g62"
         transform="translate(972.46954,601.02706)"><path
           id="path60"
           style="fill:#ffffff;fill-opacity:1;fill-rule:nonzero;stroke:none"
           d="M 0,0 V -50.4 H -7.92 V -48.82 0 Z" /></g><g
         id="g70"
         transform="translate(964.54964,552.20676)"><path
           id="path68"
           style="fill:#ffffff;fill-opacity:1;fill-rule:nonzero;stroke:none"
           d="m 0,0 v -1.58 h -7.56 l -20.31,48.82 v 1.58 h 7.49 z" /></g><g
         id="g82"
         transform="translate(936.67954,599.44696)"><path
           id="path80"
           style="fill:#ffffff;fill-opacity:1;fill-rule:nonzero;stroke:none"
           d="M 0,0 V -48.82 H -7.99 V 1.58 H 0 Z" /></g><g
         id="g90"
         transform="translate(908.38944,569.92696)"><path
           id="path88"
           style="fill:#ffffff;fill-opacity:1;fill-rule:nonzero;stroke:none"
           d="M 0,0 -10.229,28.8 -20.52,0 Z M -3.03,31.1 15.4,-19.3 H 6.91 L 2.59,-7.13 h -25.71 l -4.319,-12.17 h -8.131 l 18.43,50.4 z" /></g><g
         id="g102"
         transform="translate(903.99004,458.22676)"><path
           id="path100"
           style="fill:#ffffff;fill-opacity:1;fill-rule:nonzero;stroke:none"
           d="M 0,0 -19.15,-32.979 V -43.27 -50.4 l -7.951,0.01 0.021,6.5 0.01,0.62 v 10.291 L -46.221,0 h 9.361 L -22.9,-25.13 -8.931,0 Z" /></g><g
         id="g106"
         transform="translate(897.66004,486.35666)"><path
           id="path104"
           style="fill:#ffffff;fill-opacity:1;fill-rule:nonzero;stroke:none"
           d="m 0,0 v -7.13 h -32.261 v 50.4 h 7.99 V 0 Z" /></g><g
         id="g114"
         transform="translate(878.35924,601.02706)"><path
           id="path112"
           style="fill:#ffffff;fill-opacity:1;fill-rule:nonzero;stroke:none"
           d="M 0,0 V -7.13 H -16.27 V -50.4 h -7.919 V -7.13 H -40.46 V 0 Z" /></g><g
         id="g126"
         transform="translate(845.09944,498.52656)"><path
           id="path124"
           style="fill:#ffffff;fill-opacity:1;fill-rule:nonzero;stroke:none"
           d="M 0,0 -10.229,28.8 -20.52,0 Z M -3.03,31.1 15.4,-19.3 H 6.91 L 2.59,-7.13 h -25.71 l -4.319,-12.17 h -8.13 l 18.429,50.4 z" /></g><g
         id="g130"
         transform="translate(856.03984,458.22676)"><path
           id="path128"
           style="fill:#ffffff;fill-opacity:1;fill-rule:nonzero;stroke:none"
           d="M 0,0 V -7.13 H -16.271 V -50.4 H -24.19 V -7.13 H -40.46 V 0 Z" /></g><g
         id="g144"
         transform="translate(834.66004,587.92696)"><path
           id="path142"
           style="fill:#ffffff;fill-opacity:1;fill-rule:nonzero;stroke:none"
           d="m 0,0 -8.07,-1.66 c -0.43,2.54 -1.58,4.61 -3.451,6.19 -1.87,1.59 -4.25,2.38 -7.129,2.38 -2.691,0 -4.901,-0.66 -6.621,-1.98 C -27,3.61 -27.86,1.96 -27.86,0 c 0,-1.73 0.69,-3.17 2.08,-4.32 1.389,-1.15 3.15,-1.98 5.259,-2.49 2.111,-0.5 4.391,-1.15 6.84,-1.94 2.451,-0.79 4.731,-1.66 6.84,-2.59 2.111,-0.94 3.861,-2.45 5.25,-4.54 1.401,-2.09 2.091,-4.64 2.091,-7.67 0,-4.17 -1.771,-7.63 -5.32,-10.37 -3.56,-2.73 -7.97,-4.1 -13.25,-4.1 -5.281,0 -9.651,1.25 -13.111,3.74 -3.449,2.5 -5.489,5.86 -6.12,10.08 l 7.99,1.66 c 0.441,-2.69 1.641,-4.78 3.601,-6.26 1.97,-1.49 4.59,-2.24 7.85,-2.24 2.98,0 5.41,0.69 7.309,2.06 1.901,1.36 2.841,3.1 2.841,5.22 0,1.39 -0.4,2.6 -1.221,3.63 -0.819,1.03 -1.88,1.84 -3.199,2.41 -1.32,0.58 -2.841,1.14 -4.54,1.7 -1.7,0.55 -3.44,1.03 -5.221,1.44 -1.779,0.4 -3.519,0.99 -5.219,1.76 -1.701,0.77 -3.22,1.63 -4.54,2.59 -1.321,0.96 -2.38,2.28 -3.201,3.96 -0.819,1.68 -1.219,3.63 -1.219,5.83 0,4.08 1.69,7.48 5.07,10.19 3.39,2.71 7.6,4.07 12.64,4.07 4.99,0 9.139,-1.28 12.46,-3.85 C -2.591,7.4 -0.63,4.08 0,0" /></g><path
         id="path150"
         style="fill:#ffffff;fill-opacity:1;fill-rule:nonzero;stroke:none"
         d="m 810.60964,407.82686 h -7.989 v 50.4 h 7.989 z" /><g
         id="g154"
         transform="translate(810.17954,515.72676)"><path
           id="path152"
           style="fill:#ffffff;fill-opacity:1;fill-rule:nonzero;stroke:none"
           d="m 0,0 -7.35,-2.88 c -1.44,3.03 -3.56,5.48 -6.37,7.35 -2.81,1.87 -5.99,2.81 -9.54,2.81 -5.139,0 -9.44,-1.79 -12.92,-5.37 -3.49,-3.57 -5.219,-7.98 -5.219,-13.21 0,-5.23 1.729,-9.639 5.219,-13.21 3.48,-3.58 7.781,-5.37 12.92,-5.37 3.55,0 6.73,0.941 9.54,2.81 2.81,1.87 4.93,4.32 6.37,7.35 L 0,-22.6 c -1.88,-4.129 -4.88,-7.6 -9,-10.41 -4.13,-2.8 -8.88,-4.21 -14.26,-4.21 -7.44,0 -13.69,2.5 -18.76,7.491 -5.06,4.989 -7.59,11.129 -7.59,18.429 0,7.3 2.53,13.44 7.59,18.43 5.07,4.99 11.32,7.49 18.76,7.49 5.38,0 10.13,-1.4 14.26,-4.21 C -4.88,7.6 -1.88,4.13 0,0" /></g><g
         id="g162"
         transform="translate(794.47934,445.12716)"><path
           id="path160"
           style="fill:#ffffff;fill-opacity:1;fill-rule:nonzero;stroke:none"
           d="M 0,0 -8.06,-1.66 C -8.5,0.88 -9.649,2.949 -11.52,4.529 -13.39,6.12 -15.77,6.91 -18.649,6.91 -21.34,6.91 -23.54,6.25 -25.27,4.93 -27,3.609 -27.859,1.96 -27.859,0 c 0,-1.73 0.689,-3.17 2.089,-4.32 1.39,-1.16 3.14,-1.981 5.25,-2.491 2.11,-0.5 4.39,-1.149 6.84,-1.939 2.451,-0.79 4.731,-1.66 6.84,-2.59 2.111,-0.94 3.861,-2.45 5.26,-4.54 1.391,-2.091 2.08,-4.641 2.08,-7.671 0,-4.17 -1.77,-7.63 -5.319,-10.369 -3.561,-2.73 -7.971,-4.101 -13.25,-4.101 -5.281,0 -9.651,1.25 -13.111,3.741 -3.45,2.5 -5.49,5.86 -6.12,10.08 l 8,1.66 c 0.43,-2.69 1.63,-4.78 3.601,-6.261 1.96,-1.489 4.579,-2.229 7.849,-2.229 2.97,0 5.411,0.679 7.3,2.05 1.901,1.37 2.851,3.1 2.851,5.219 0,1.391 -0.41,2.601 -1.231,3.631 -0.809,1.029 -1.88,1.84 -3.2,2.409 -1.319,0.58 -2.83,1.141 -4.54,1.7 -1.7,0.55 -3.439,1.031 -5.22,1.441 -1.77,0.399 -3.509,0.99 -5.219,1.76 -1.701,0.769 -3.21,1.63 -4.531,2.59 -1.32,0.959 -2.389,2.28 -3.21,3.959 -0.81,1.681 -1.219,3.63 -1.219,5.831 0,4.08 1.689,7.48 5.069,10.19 3.391,2.71 7.601,4.069 12.641,4.069 4.989,0 9.139,-1.279 12.46,-3.849 C -2.59,7.399 -0.62,4.08 0,0" /></g><g
         id="g166"
         transform="translate(789.72934,601.02706)"><path
           id="path164"
           style="fill:#ffffff;fill-opacity:1;fill-rule:nonzero;stroke:none"
           d="m 0,0 v -50.4 h -7.92 v 21.67 H -34.989 V -50.4 h -7.99 V 0 h 7.99 V -21.67 H -7.92 V 0 Z" /></g><path
         id="path176"
         style="fill:#ffffff;fill-opacity:1;fill-rule:nonzero;stroke:none"
         d="m 753.50964,479.22686 h -7.99 v 50.4 h 7.99 z" /><g
         id="g180"
         transform="translate(742.92954,442.88696)"><path
           id="path178"
           style="fill:#ffffff;fill-opacity:1;fill-rule:nonzero;stroke:none"
           d="M 0,0 C 0,2.36 -0.79,4.31 -2.38,5.87 -3.96,7.43 -6,8.21 -8.5,8.21 H -21.38 V -8.2 H -8.5 c 2.5,0 4.54,0.78 6.12,2.34 C -0.79,-4.3 0,-2.35 0,0 M -4.03,-15.04 9.5,-35.061 h -9.57 l -13.18,19.581 h -8.13 v -19.581 h -8 V 15.34 H -8.5 c 4.95,0 8.97,-1.45 12.061,-4.361 C 6.66,8.08 8.21,4.4 8.21,-0.07 c 0,-3.69 -1.109,-6.91 -3.31,-9.64 -2.21,-2.74 -5.19,-4.52 -8.93,-5.33" /></g><g
         id="g184"
         transform="translate(720.53984,580.36696)"><path
           id="path182"
           style="fill:#ffffff;fill-opacity:1;fill-rule:nonzero;stroke:none"
           d="m 0,0 21.67,-29.74 h -9.65 l -17.491,23.69 -7.349,-8.07 v -15.62 h -7.991 v 50.4 h 7.991 V -3.17 L 8.859,20.66 h 10 z" /></g><g
         id="g188"
         transform="translate(737.03014,529.62666)"><path
           id="path186"
           style="fill:#ffffff;fill-opacity:1;fill-rule:nonzero;stroke:none"
           d="M 0,0 V -50.4 H -7.931 V -48.82 0 Z" /></g><g
         id="g192"
         transform="translate(729.09944,480.80686)"><path
           id="path190"
           style="fill:#ffffff;fill-opacity:1;fill-rule:nonzero;stroke:none"
           d="m 0,0 v -1.58 h -7.55 l -20.309,48.82 v 1.58 h 7.489 z" /></g><g
         id="g200"
         transform="translate(706.06914,414.95726)"><path
           id="path198"
           style="fill:#ffffff;fill-opacity:1;fill-rule:nonzero;stroke:none"
           d="M 0,0 V -7.131 H -32.26 V 43.27 H 0 V 36.14 H -24.27 V 21.6 H -0.72 V 14.54 H -24.27 V 0 Z" /></g><g
         id="g208"
         transform="translate(701.24004,528.04706)"><path
           id="path206"
           style="fill:#ffffff;fill-opacity:1;fill-rule:nonzero;stroke:none"
           d="M 0,0 V -48.82 H -7.99 V 1.58 H 0 Z" /></g><g
         id="g212"
         transform="translate(679.42954,569.92696)"><path
           id="path210"
           style="fill:#ffffff;fill-opacity:1;fill-rule:nonzero;stroke:none"
           d="M 0,0 -10.229,28.8 -20.52,0 Z M -3.03,31.1 15.41,-19.3 H 6.91 L 2.59,-7.13 h -25.7 l -4.32,-12.17 h -8.14 l 18.43,50.4 z" /></g><g
         id="g216"
         transform="translate(684.74984,529.62666)"><path
           id="path214"
           style="fill:#ffffff;fill-opacity:1;fill-rule:nonzero;stroke:none"
           d="m 0,0 v -50.4 h -7.92 v 21.67 H -34.99 V -50.4 h -7.99 V 0 h 7.99 V -21.669 H -7.92 V 0 Z" /></g><g
         id="g224"
         transform="translate(676.25964,672.42696)"><path
           id="path222"
           style="fill:#ffffff;fill-opacity:1;fill-rule:nonzero;stroke:none"
           d="M 0,0 V -7.13 H -16.27 V -50.4 h -7.92 V -7.13 H -40.46 V 0 Z" /></g><g
         id="g228"
         transform="translate(668.91004,458.22676)"><path
           id="path226"
           style="fill:#ffffff;fill-opacity:1;fill-rule:nonzero;stroke:none"
           d="m 0,0 -17.49,-50.4 h -6.7 v 2.38 L -8.061,0 Z" /></g><g
         id="g236"
         transform="translate(644.71954,410.20726)"><path
           id="path234"
           style="fill:#ffffff;fill-opacity:1;fill-rule:nonzero;stroke:none"
           d="M 0,0 V -2.381 H -7.13 L -24.62,48.02 h 8.49 z" /></g><g
         id="g240"
         transform="translate(639.96954,557.75706)"><path
           id="path238"
           style="fill:#ffffff;fill-opacity:1;fill-rule:nonzero;stroke:none"
           d="M 0,0 V -7.13 H -35.78 V 0 h 2.73 z" /></g><g
         id="g244"
         transform="translate(639.96954,593.89666)"><path
           id="path242"
           style="fill:#ffffff;fill-opacity:1;fill-rule:nonzero;stroke:none"
           d="m 0,0 v -6.77 l -33.05,-29.37 h -2.73 v 6.77 L -2.729,0 Z" /></g><g
         id="g248"
         transform="translate(639.96954,601.02706)"><path
           id="path246"
           style="fill:#ffffff;fill-opacity:1;fill-rule:nonzero;stroke:none"
           d="M 0,0 V -7.13 H -2.729 -35.78 V 0 Z" /></g><g
         id="g252"
         transform="translate(634.70984,515.72676)"><path
           id="path250"
           style="fill:#ffffff;fill-opacity:1;fill-rule:nonzero;stroke:none"
           d="m 0,0 -7.34,-2.88 c -1.44,3.03 -3.56,5.48 -6.37,7.35 -2.811,1.87 -5.99,2.81 -9.54,2.81 -5.141,0 -9.45,-1.79 -12.93,-5.37 -3.48,-3.57 -5.22,-7.98 -5.22,-13.21 0,-5.23 1.74,-9.639 5.22,-13.21 3.48,-3.58 7.789,-5.37 12.93,-5.37 3.55,0 6.729,0.941 9.54,2.81 2.81,1.87 4.93,4.32 6.37,7.35 L 0,-22.6 c -1.87,-4.129 -4.87,-7.6 -9,-10.41 -4.12,-2.8 -8.88,-4.21 -14.25,-4.21 -7.44,0 -13.69,2.5 -18.76,7.491 -5.06,4.989 -7.591,11.129 -7.591,18.429 0,7.3 2.531,13.44 7.591,18.43 5.07,4.99 11.32,7.49 18.76,7.49 5.37,0 10.13,-1.4 14.25,-4.21 C -4.87,7.6 -1.87,4.13 0,0" /></g><g
         id="g256"
         transform="translate(632.54964,659.32686)"><path
           id="path254"
           style="fill:#ffffff;fill-opacity:1;fill-rule:nonzero;stroke:none"
           d="m 0,0 -8.06,-1.66 c -0.43,2.54 -1.58,4.61 -3.45,6.19 -1.88,1.59 -4.25,2.38 -7.13,2.38 -2.69,0 -4.9,-0.66 -6.63,-1.98 C -27,3.61 -27.86,1.96 -27.86,0 c 0,-1.73 0.7,-3.17 2.09,-4.32 1.39,-1.16 3.14,-1.98 5.26,-2.49 2.11,-0.5 4.39,-1.15 6.84,-1.94 2.44,-0.79 4.72,-1.66 6.84,-2.59 2.11,-0.94 3.86,-2.45 5.25,-4.54 1.39,-2.09 2.09,-4.64 2.09,-7.67 0,-4.17 -1.78,-7.63 -5.33,-10.37 -3.55,-2.73 -7.97,-4.1 -13.25,-4.1 -5.28,0 -9.64,1.25 -13.1,3.74 -3.46,2.5 -5.5,5.86 -6.12,10.08 l 7.99,1.66 c 0.43,-2.69 1.63,-4.78 3.6,-6.26 1.97,-1.49 4.58,-2.24 7.85,-2.24 2.98,0 5.41,0.69 7.31,2.06 1.89,1.36 2.84,3.1 2.84,5.22 0,1.39 -0.41,2.6 -1.22,3.63 -0.82,1.03 -1.89,1.84 -3.21,2.41 -1.32,0.58 -2.83,1.14 -4.53,1.7 -1.71,0.55 -3.45,1.03 -5.22,1.44 -1.78,0.4 -3.52,0.99 -5.22,1.76 -1.71,0.77 -3.22,1.63 -4.54,2.59 -1.32,0.96 -2.39,2.28 -3.2,3.96 -0.82,1.68 -1.23,3.63 -1.23,5.83 0,4.08 1.7,7.48 5.08,10.19 3.38,2.71 7.6,4.07 12.64,4.07 4.99,0 9.14,-1.28 12.45,-3.85 C -2.59,7.4 -0.62,4.08 0,0" /></g><path
         id="path266"
         style="fill:#ffffff;fill-opacity:1;fill-rule:nonzero;stroke:none"
         d="m 615.19964,407.82686 h -7.99 v 50.4 h 7.99 z" /><g
         id="g274"
         transform="translate(584.53014,569.92696)"><path
           id="path272"
           style="fill:#ffffff;fill-opacity:1;fill-rule:nonzero;stroke:none"
           d="M 0,0 -10.221,28.8 -20.521,0 Z m -3.021,31.1 18.43,-50.4 h -8.5 L 2.59,-7.13 h -25.7 l -4.321,-12.17 h -8.139 l 18.439,50.4 z" /></g><g
         id="g278"
         transform="translate(598.71954,458.22676)"><path
           id="path276"
           style="fill:#ffffff;fill-opacity:1;fill-rule:nonzero;stroke:none"
           d="M 0,0 V -50.4 H -7.92 V -48.82 0 Z" /></g><g
         id="g282"
         transform="translate(576.89924,641.32686)"><path
           id="path280"
           style="fill:#ffffff;fill-opacity:1;fill-rule:nonzero;stroke:none"
           d="M 0,0 -10.22,28.8 -20.52,0 Z M -3.02,31.1 15.41,-19.3 H 6.91 L 2.591,-7.13 h -25.7 L -27.43,-19.3 h -8.14 l 18.43,50.4 z" /></g><g
         id="g286"
         transform="translate(590.79964,409.40646)"><path
           id="path284"
           style="fill:#ffffff;fill-opacity:1;fill-rule:nonzero;stroke:none"
           d="m 0,0 v -1.58 h -7.56 l -20.31,48.82 v 1.58 h 7.49 z" /></g><g
         id="g290"
         transform="translate(579.70984,486.35666)"><path
           id="path288"
           style="fill:#ffffff;fill-opacity:1;fill-rule:nonzero;stroke:none"
           d="m 0,0 v -7.13 h -32.26 v 50.4 H 0 V 36.14 H -24.271 V 21.601 H -0.72 V 14.54 H -24.271 V 0 Z" /></g><g
         id="g302"
         transform="translate(562.92954,456.64666)"><path
           id="path300"
           style="fill:#ffffff;fill-opacity:1;fill-rule:nonzero;stroke:none"
           d="M 0,0 V -48.82 H -7.99 V 1.58 H 0 Z" /></g><g
         id="g310"
         transform="translate(526.35974,580.36696)"><path
           id="path308"
           style="fill:#ffffff;fill-opacity:1;fill-rule:nonzero;stroke:none"
           d="m 0,0 21.67,-29.74 h -9.65 l -17.5,23.69 -7.34,-8.07 v -15.62 h -7.99 v 50.4 h 7.99 V -3.17 L 8.85,20.66 h 10.01 z" /></g><g
         id="g314"
         transform="translate(547.16004,458.22676)"><path
           id="path312"
           style="fill:#ffffff;fill-opacity:1;fill-rule:nonzero;stroke:none"
           d="m 0,0 v -31.18 c 0,-5.85 -1.98,-10.64 -5.94,-14.36 -3.96,-3.72 -9.03,-5.58 -15.22,-5.58 -6.151,0 -11.21,1.87 -15.2,5.62 -3.98,3.74 -5.971,8.521 -5.971,14.32 V 0 h 7.991 v -31.18 c 0,-3.69 1.22,-6.72 3.67,-9.07 2.45,-2.35 5.62,-3.53 9.51,-3.53 3.98,0 7.18,1.18 9.61,3.53 2.42,2.35 3.63,5.38 3.63,9.07 V 0 Z" /></g><g
         id="g322"
         transform="translate(542.47934,529.62666)"><path
           id="path320"
           style="fill:#ffffff;fill-opacity:1;fill-rule:nonzero;stroke:none"
           d="M 0,0 V -7.13 H -16.27 V -50.4 h -7.919 v 43.27 h -16.27 V 0 Z" /></g><g
         id="g326"
         transform="translate(537.79964,629.15696)"><path
           id="path324"
           style="fill:#ffffff;fill-opacity:1;fill-rule:nonzero;stroke:none"
           d="m 0,0 v -7.13 h -32.25 v 50.4 H 0 V 36.14 H -24.26 V 21.6 H -0.72 V 14.54 H -24.26 V 0 Z" /></g></g></g></svg>
